# xmcd
#
# Track frame offsets:
#	150
#	15404
#	30509
#	44146
#	64094
#	78178
#	96459
#	113535
#	132989
#	149996
#	167499
#
# Disc length: 2487 seconds
#
# Revision: 1
# Processed by: cddbd v1.5.2PL0 Copyright (c) Steve Scherf et al.
# Submitted via: EasyCDDAExtractor 12.0.1.1
#
DISCID=9309b50b
DTITLE=Rune Rudberg - Tidevannsbølger
DYEAR=1994
DGENRE=Country
TTITLE0=Tidevannsbølger
TTITLE1=Gamle Mack
TTITLE2=Shot Full Of Love
TTITLE3=Hav, HImmel Og Iskald Snø
TTITLE4=Har Du Sovet Godt
TTITLE5=Stjerneskudd I Natten
TTITLE6=Borte Bra Men Hjemme Best
TTITLE7=Et Kjent Og Gammelt Spill
TTITLE8=Falling Down
TTITLE9=Når Storm Endrer Kursen
TTITLE10=Brygge
EXTD=
EXTT0=
EXTT1=
EXTT2=
EXTT3=
EXTT4=
EXTT5=
EXTT6=
EXTT7=
EXTT8=
EXTT9=
EXTT10=
PLAYORDER=
